<svg width="24" height="24" viewBox="0 0 24 24" fill="none" xmlns="http://www.w3.org/2000/svg">
<path d="M4.75 4C3.24011 4 2 5.24011 2 6.75V17.25C2 18.7599 3.24011 20 4.75 20H19.25C20.7599 20 22 18.7599 22 17.25V6.75C22 5.24011 20.7599 4 19.25 4H4.75ZM4.75 5.5H19.25C19.9491 5.5 20.5 6.05089 20.5 6.75V17.25C20.5 17.9491 19.9491 18.5 19.25 18.5H4.75C4.05089 18.5 3.5 17.9491 3.5 17.25V6.75C3.5 6.66261 3.50896 6.57709 3.52539 6.49512C3.64039 5.92132 4.13828 5.5 4.75 5.5ZM9.5 8.5C9.1955 8.5 8.92116 8.68432 8.80566 8.96582L6.55566 14.4658C6.39866 14.8493 6.58232 15.2869 6.96582 15.4434C7.34932 15.6014 7.78784 15.4172 7.94434 15.0332L8.16211 14.5H10.8379L11.0557 15.0332C11.1747 15.3237 11.4555 15.5 11.751 15.5C11.8455 15.5 11.9412 15.4823 12.0342 15.4443C12.4172 15.2878 12.6013 14.8493 12.4443 14.4658L10.1943 8.96582C10.0793 8.68382 9.8045 8.5 9.5 8.5ZM16.875 9.5C16.53 9.5 16.25 9.78 16.25 10.125V11H15.25C14.0095 11 13 12.0095 13 13.25C13 14.4905 14.0095 15.5 15.25 15.5H16.875C17.22 15.5 17.5 15.22 17.5 14.875V10.125C17.5 9.78 17.22 9.5 16.875 9.5ZM9.5 11.2305L10.2236 13H8.77637L9.5 11.2305ZM15.25 12.25H16.25V14.25H15.25C14.6985 14.25 14.25 13.8015 14.25 13.25C14.25 12.6985 14.6985 12.25 15.25 12.25Z" fill="black"/>
</svg>
