<svg width="24" height="24" viewBox="0 0 24 24" fill="none" xmlns="http://www.w3.org/2000/svg">
<path d="M6.83597 2.50488C6.38656 2.50488 5.93719 2.67417 5.59866 3.0127L3.01272 5.59863C2.33567 6.27569 2.33567 7.39619 3.01272 8.07324L6.99514 12.0557L4.45804 14.5918C4.24805 14.8018 4.09426 15.0629 4.01272 15.3496L2.52932 20.5439C2.49274 20.6725 2.49116 20.8084 2.52475 20.9378C2.55833 21.0671 2.62587 21.1852 2.72036 21.2797C2.81486 21.3742 2.93288 21.4417 3.06223 21.4753C3.19158 21.5089 3.32755 21.5073 3.45608 21.4707L8.65139 19.9873L8.65237 19.9863C8.93713 19.9045 9.19763 19.7526 9.40823 19.542L20.4746 8.47461C21.8352 7.11405 21.8352 4.88595 20.4746 3.52539C19.7946 2.84507 18.8974 2.50488 18 2.50488C17.1027 2.50488 16.2054 2.84507 15.5254 3.52539L12.0557 6.99512L11.1133 6.05273C11.0668 5.9886 11.0104 5.93224 10.9463 5.88574L9.11331 4.05273C9.06681 3.9886 9.01045 3.93224 8.94632 3.88574L8.07327 3.0127C7.73474 2.67417 7.28537 2.50488 6.83597 2.50488ZM6.83597 3.99512C6.89836 3.99512 6.96075 4.02127 7.01272 4.07324L7.43948 4.5L7.21975 4.71973C7.14778 4.78884 7.09031 4.87161 7.05072 4.96321C7.01114 5.0548 6.99022 5.15338 6.98921 5.25316C6.98819 5.35294 7.0071 5.45192 7.04482 5.5443C7.08253 5.63668 7.1383 5.72061 7.20886 5.79117C7.27942 5.86172 7.36335 5.9175 7.45573 5.95521C7.54811 5.99293 7.64709 6.01183 7.74687 6.01082C7.84665 6.0098 7.94522 5.98889 8.03682 5.9493C8.12842 5.90972 8.21119 5.85225 8.2803 5.78027L8.50003 5.56055L9.43948 6.5L9.21975 6.71973C9.14778 6.78884 9.09031 6.87161 9.05072 6.96321C9.01114 7.0548 8.99022 7.15338 8.98921 7.25316C8.98819 7.35294 9.0071 7.45192 9.04482 7.5443C9.08253 7.63668 9.1383 7.72061 9.20886 7.79117C9.27942 7.86172 9.36335 7.91749 9.45573 7.95521C9.54811 7.99293 9.64709 8.01183 9.74687 8.01082C9.84665 8.00981 9.94522 7.98889 10.0368 7.9493C10.1284 7.90972 10.2112 7.85225 10.2803 7.78027L10.5 7.56055L10.9951 8.05566L8.05569 10.9951L4.07327 7.0127C3.96932 6.90875 3.96932 6.76313 4.07327 6.65918L6.65921 4.07324C6.71118 4.02127 6.77357 3.99512 6.83597 3.99512ZM18 3.99609C18.5104 3.99609 19.0201 4.19276 19.4131 4.58594H19.4141C20.2015 5.37337 20.2015 6.62663 19.4141 7.41406L18.4444 8.38379L15.6162 5.55566L16.586 4.58594C16.979 4.19276 17.4896 3.99609 18 3.99609ZM14.5557 6.61621L17.3838 9.44434L8.34671 18.4814C8.31739 18.5106 8.28026 18.5329 8.23831 18.5449L4.34182 19.6582L5.45511 15.7607V15.7598C5.46657 15.7195 5.48757 15.6834 5.51858 15.6523L14.5557 6.61621ZM18.0303 12.9697L16.9698 14.0303L18.4395 15.5L18.2198 15.7197C18.1478 15.7888 18.0903 15.8716 18.0507 15.9632C18.0111 16.0548 17.9902 16.1534 17.9892 16.2532C17.9882 16.3529 18.0071 16.4519 18.0448 16.5443C18.0825 16.6367 18.1383 16.7206 18.2089 16.7912C18.2794 16.8617 18.3633 16.9175 18.4557 16.9552C18.5481 16.9929 18.6471 17.0118 18.7469 17.0108C18.8466 17.0098 18.9452 16.9889 19.0368 16.9493C19.1284 16.9097 19.2112 16.8523 19.2803 16.7803L19.5 16.5605L20.0127 17.0732C20.1167 17.1772 20.1167 17.3228 20.0127 17.4268L17.4268 20.0127C17.3228 20.1166 17.1772 20.1166 17.0733 20.0127L14.0303 16.9697L12.9698 18.0303L16.0127 21.0732C16.6898 21.7503 17.8103 21.7503 18.4873 21.0732L21.0733 18.4873C21.7503 17.8103 21.7503 16.6897 21.0733 16.0127L20.1133 15.0527C20.0668 14.9886 20.0104 14.9322 19.9463 14.8857L18.0303 12.9697Z" fill="black"/>
</svg>
