<svg width="24" height="24" viewBox="0 0 24 24" fill="none" xmlns="http://www.w3.org/2000/svg">
<path d="M4.25 4C3.01625 4 2 5.01625 2 6.25V17.75C2 18.9838 3.01625 20 4.25 20H19.75C20.9838 20 22 18.9838 22 17.75V8.75C22 7.51625 20.9838 6.5 19.75 6.5H12.0215L9.78613 4.6377C9.29203 4.22606 8.66958 4 8.02637 4H4.25ZM4.25 5.5H8.02637C8.31915 5.5 8.60128 5.60268 8.82617 5.79004L11.4785 8H11.75H13.5381C13.8932 11.674 16.826 14.6068 20.5 14.9619V17.75C20.5 18.1732 20.1733 18.5 19.75 18.5H4.25C3.82675 18.5 3.5 18.1732 3.5 17.75V6.25C3.5 5.82675 3.82675 5.5 4.25 5.5ZM15.0488 8H16.5654C16.8886 10.0151 18.4849 11.6114 20.5 11.9346V13.4512C17.642 13.1112 15.3888 10.858 15.0488 8ZM18.0889 8H19.75C20.1733 8 20.5 8.32675 20.5 8.75V10.4111C19.3033 10.1311 18.3689 9.19673 18.0889 8Z" fill="black"/>
</svg>
