<svg width="24" height="24" viewBox="0 0 24 24" fill="none" xmlns="http://www.w3.org/2000/svg">
<path d="M12 2C6.485 2 2 6.485 2 12C2 17.515 6.485 22 12 22C17.515 22 22 17.515 22 12C22 9.87 21.3353 7.89539 20.1953 6.27539L19.1152 7.35547C19.9902 8.69047 20.5 10.29 20.5 12C20.5 16.685 16.685 20.5 12 20.5C7.315 20.5 3.5 16.685 3.5 12C3.5 7.315 7.315 3.5 12 3.5C13.71 3.5 15.3095 4.00977 16.6445 4.88477L17.7246 3.80469C16.1046 2.66469 14.13 2 12 2ZM20.7354 2.49316C20.5406 2.49884 20.3556 2.5801 20.2197 2.71973L11.4697 11.4697C11.3977 11.5388 11.3403 11.6216 11.3007 11.7132C11.2611 11.8048 11.2402 11.9034 11.2392 12.0032C11.2382 12.1029 11.2571 12.2019 11.2948 12.2943C11.3325 12.3867 11.3883 12.4706 11.4588 12.5412C11.5294 12.6117 11.6133 12.6675 11.7057 12.7052C11.7981 12.7429 11.8971 12.7618 11.9968 12.7608C12.0966 12.7598 12.1952 12.7389 12.2868 12.6993C12.3784 12.6597 12.4612 12.6023 12.5303 12.5303L21.2803 3.78027C21.3885 3.6749 21.4623 3.53931 21.4922 3.39126C21.5221 3.2432 21.5066 3.08958 21.4477 2.9505C21.3888 2.81141 21.2893 2.69335 21.1622 2.61175C21.0351 2.53015 20.8863 2.48882 20.7354 2.49316ZM12 5C8.14 5 5 8.14 5 12C5 15.86 8.14 19 12 19C15.86 19 19 15.86 19 12C19 10.705 18.6454 9.49031 18.0254 8.44531L16.9248 9.54492C17.2898 10.2849 17.5 11.115 17.5 12C17.5 15.035 15.035 17.5 12 17.5C8.965 17.5 6.5 15.035 6.5 12C6.5 8.965 8.965 6.5 12 6.5C12.885 6.5 13.7151 6.7102 14.4551 7.0752L15.5547 5.97461C14.5097 5.35461 13.295 5 12 5ZM12 8C9.795 8 8 9.795 8 12C8 14.205 9.795 16 12 16C14.205 16 16 14.205 16 12C16 11.545 15.9204 11.1053 15.7754 10.6953L14.5 11.9697V12C14.5 13.38 13.38 14.5 12 14.5C10.62 14.5 9.5 13.38 9.5 12C9.5 10.62 10.62 9.5 12 9.5H12.0303L13.3047 8.22461C12.8947 8.07961 12.455 8 12 8Z" fill="black"/>
</svg>
