<svg width="24" height="24" viewBox="0 0 24 24" fill="none" xmlns="http://www.w3.org/2000/svg">
<path d="M4.75 2C3.51625 2 2.5 3.01625 2.5 4.25V18.75C2.50098 18.7883 2.5049 18.8265 2.51172 18.8643C2.57325 20.0448 3.55531 21 4.75 21H19.25C20.4838 21 21.5 19.9838 21.5 18.75V7.25C21.5 6.01625 20.4838 5 19.25 5H7V3.25C7 2.5682 6.4318 2 5.75 2H4.75ZM4.75 3.5H5.5V5.62695C5.48677 5.70747 5.48677 5.7896 5.5 5.87012V16.5H4.75C4.4847 16.5 4.23724 16.5673 4 16.6533V4.25C4 3.82675 4.32675 3.5 4.75 3.5ZM7 6.5H19.25C19.6733 6.5 20 6.82675 20 7.25V18.75C20 19.1733 19.6733 19.5 19.25 19.5H4.75C4.32675 19.5 4 19.1733 4 18.75C4 18.3267 4.32675 18 4.75 18H5.75C6.4318 18 7 17.4318 7 16.75V6.5ZM17.7354 8.99316C17.7086 8.99401 17.6818 8.99629 17.6553 9H15.75C15.6506 8.99859 15.5519 9.01696 15.4597 9.05402C15.3675 9.09108 15.2836 9.1461 15.2128 9.21588C15.142 9.28566 15.0858 9.36882 15.0474 9.46051C15.0091 9.5522 14.9893 9.65061 14.9893 9.75C14.9893 9.84939 15.0091 9.9478 15.0474 10.0395C15.0858 10.1312 15.142 10.2143 15.2128 10.2841C15.2836 10.3539 15.3675 10.4089 15.4597 10.446C15.5519 10.483 15.6506 10.5014 15.75 10.5H15.9395L14.25 12.1895L12.2803 10.2197C12.1396 10.0791 11.9489 10.0001 11.75 10.0001C11.5511 10.0001 11.3604 10.0791 11.2197 10.2197L8.71973 12.7197C8.64775 12.7888 8.59028 12.8716 8.5507 12.9632C8.51111 13.0548 8.49019 13.1534 8.48918 13.2532C8.48817 13.3529 8.50707 13.4519 8.54479 13.5443C8.58251 13.6367 8.63828 13.7206 8.70883 13.7912C8.77939 13.8617 8.86332 13.9175 8.9557 13.9552C9.04808 13.9929 9.14706 14.0118 9.24684 14.0108C9.34662 14.0098 9.4452 13.9889 9.53679 13.9493C9.62839 13.9097 9.71116 13.8523 9.78027 13.7803L11.75 11.8105L13.7197 13.7803C13.8604 13.9209 14.0511 13.9999 14.25 13.9999C14.4489 13.9999 14.6396 13.9209 14.7803 13.7803L17 11.5605V11.75C16.9986 11.8494 17.017 11.9481 17.054 12.0403C17.0911 12.1325 17.1461 12.2164 17.2159 12.2872C17.2857 12.358 17.3688 12.4142 17.4605 12.4526C17.5522 12.4909 17.6506 12.5107 17.75 12.5107C17.8494 12.5107 17.9478 12.4909 18.0395 12.4526C18.1312 12.4142 18.2143 12.358 18.2841 12.2872C18.3539 12.2164 18.4089 12.1325 18.446 12.0403C18.483 11.9481 18.5014 11.8494 18.5 11.75V9.83691C18.5135 9.72961 18.5037 9.62064 18.4712 9.51748C18.4387 9.41432 18.3843 9.31941 18.3116 9.23927C18.239 9.15912 18.1499 9.09563 18.0504 9.05315C17.951 9.01068 17.8435 8.99021 17.7354 8.99316ZM9.25 15.5C9.15062 15.4986 9.05194 15.517 8.95972 15.554C8.86749 15.5911 8.78355 15.6461 8.71277 15.7159C8.642 15.7857 8.58579 15.8688 8.54743 15.9605C8.50907 16.0522 8.48932 16.1506 8.48932 16.25C8.48932 16.3494 8.50907 16.4478 8.54743 16.5395C8.58579 16.6312 8.642 16.7143 8.71277 16.7841C8.78355 16.8539 8.86749 16.9089 8.95972 16.946C9.05194 16.983 9.15062 17.0014 9.25 17H17.75C17.8494 17.0014 17.9481 16.983 18.0403 16.946C18.1325 16.9089 18.2164 16.8539 18.2872 16.7841C18.358 16.7143 18.4142 16.6312 18.4526 16.5395C18.4909 16.4478 18.5107 16.3494 18.5107 16.25C18.5107 16.1506 18.4909 16.0522 18.4526 15.9605C18.4142 15.8688 18.358 15.7857 18.2872 15.7159C18.2164 15.6461 18.1325 15.5911 18.0403 15.554C17.9481 15.517 17.8494 15.4986 17.75 15.5H9.25Z" fill="black"/>
</svg>
