<svg width="20" height="21" viewBox="0 0 20 21" fill="none" xmlns="http://www.w3.org/2000/svg">
<path d="M9.99024 2.15773C9.82462 2.16032 9.6668 2.22854 9.55144 2.3474C9.43609 2.46627 9.37263 2.62606 9.375 2.79168V3.41668H6.45834C5.42459 3.41668 4.58334 4.25793 4.58334 5.29168V9.04168C4.58334 10.0754 5.42459 10.9167 6.45834 10.9167H13.5417C14.5754 10.9167 15.4167 10.0754 15.4167 9.04168V5.29168C15.4167 4.25793 14.5754 3.41668 13.5417 3.41668H10.625V2.79168C10.6262 2.70803 10.6106 2.62499 10.5791 2.54748C10.5476 2.46997 10.5009 2.39957 10.4417 2.34045C10.3825 2.28133 10.312 2.23469 10.2345 2.20331C10.1569 2.17192 10.0739 2.15642 9.99024 2.15773ZM8.125 5.91668C8.70042 5.91668 9.16667 6.38293 9.16667 6.95835C9.16667 7.53377 8.70042 8.00002 8.125 8.00002C7.54959 8.00002 7.08334 7.53377 7.08334 6.95835C7.08334 6.38293 7.54959 5.91668 8.125 5.91668ZM11.875 5.91668C12.4504 5.91668 12.9167 6.38293 12.9167 6.95835C12.9167 7.53377 12.4504 8.00002 11.875 8.00002C11.2996 8.00002 10.8333 7.53377 10.8333 6.95835C10.8333 6.38293 11.2996 5.91668 11.875 5.91668ZM5.20834 12.1667C4.17459 12.1667 3.33334 13.0079 3.33334 14.0417V14.3591C3.33334 15.3403 3.74146 16.2828 4.45313 16.9453C5.37771 17.8066 7.09042 18.8334 10 18.8334C12.9096 18.8334 14.6227 17.8066 15.5469 16.9453C16.259 16.2828 16.6667 15.3399 16.6667 14.3591V14.0417C16.6667 13.0079 15.8254 12.1667 14.7917 12.1667H5.20834Z" fill="black"/>
<path d="M9.99024 2.15773C9.82462 2.16032 9.6668 2.22854 9.55144 2.3474C9.43609 2.46627 9.37263 2.62606 9.375 2.79168V3.41668H6.45834C5.42459 3.41668 4.58334 4.25793 4.58334 5.29168V9.04168C4.58334 10.0754 5.42459 10.9167 6.45834 10.9167H13.5417C14.5754 10.9167 15.4167 10.0754 15.4167 9.04168V5.29168C15.4167 4.25793 14.5754 3.41668 13.5417 3.41668H10.625V2.79168C10.6262 2.70803 10.6106 2.62499 10.5791 2.54748C10.5476 2.46997 10.5009 2.39957 10.4417 2.34045C10.3825 2.28133 10.312 2.23469 10.2345 2.20331C10.1569 2.17192 10.0739 2.15642 9.99024 2.15773ZM8.125 5.91668C8.70042 5.91668 9.16667 6.38293 9.16667 6.95835C9.16667 7.53377 8.70042 8.00002 8.125 8.00002C7.54959 8.00002 7.08334 7.53377 7.08334 6.95835C7.08334 6.38293 7.54959 5.91668 8.125 5.91668ZM11.875 5.91668C12.4504 5.91668 12.9167 6.38293 12.9167 6.95835C12.9167 7.53377 12.4504 8.00002 11.875 8.00002C11.2996 8.00002 10.8333 7.53377 10.8333 6.95835C10.8333 6.38293 11.2996 5.91668 11.875 5.91668ZM5.20834 12.1667C4.17459 12.1667 3.33334 13.0079 3.33334 14.0417V14.3591C3.33334 15.3403 3.74146 16.2828 4.45313 16.9453C5.37771 17.8066 7.09042 18.8334 10 18.8334C12.9096 18.8334 14.6227 17.8066 15.5469 16.9453C16.259 16.2828 16.6667 15.3399 16.6667 14.3591V14.0417C16.6667 13.0079 15.8254 12.1667 14.7917 12.1667H5.20834Z" fill="white"/>
</svg>
