<svg width="24" height="24" viewBox="0 0 24 24" fill="none" xmlns="http://www.w3.org/2000/svg">
<path d="M12.0049 2.50001C11.8647 2.49914 11.7271 2.53756 11.6077 2.61092C11.4882 2.68428 11.3917 2.78964 11.3291 2.91505L8.78906 7.99611C7.76509 7.90196 6.74905 8.07591 5.79883 8.33986C4.64898 8.65926 3.5625 9.00001 2.75 9.00001C2.63111 8.99996 2.51392 9.02816 2.40808 9.0823C2.30224 9.13644 2.21078 9.21496 2.14125 9.31139C2.07172 9.40782 2.02611 9.51939 2.00817 9.63691C1.99023 9.75444 2.00048 9.87454 2.03808 9.98732C3.03355 12.9737 5.67939 14.2857 6.43261 14.6328L5.50879 20.6358C5.48571 20.7851 5.50826 20.9379 5.57349 21.0742C5.63872 21.2105 5.74359 21.3239 5.87437 21.3995C6.00514 21.4752 6.15572 21.5096 6.30639 21.4983C6.45706 21.4869 6.60078 21.4304 6.71875 21.336C8.89851 19.5921 11.5531 18.7024 11.9531 18.5713L17.4033 21.4151C17.5232 21.4775 17.6578 21.5063 17.7927 21.4986C17.9277 21.4908 18.058 21.4467 18.17 21.371C18.2819 21.2953 18.3713 21.1907 18.4287 21.0683C18.4861 20.9459 18.5094 20.8103 18.4961 20.6758C18.4961 20.6758 18.3696 19.4018 18.1143 17.9336C17.9016 16.7106 17.6047 15.4608 17.1348 14.4629L21.752 10.3076C21.8428 10.2258 21.9122 10.1231 21.9543 10.0084C21.9963 9.89361 22.0097 9.77032 21.9933 9.64922C21.9768 9.52812 21.931 9.41288 21.8598 9.31352C21.7887 9.21416 21.6943 9.13369 21.585 9.07912C21.585 9.07912 18.7119 7.6913 15.2109 7.99513L12.6709 2.91505C12.609 2.79112 12.5141 2.68674 12.3965 2.61349C12.2789 2.54023 12.1434 2.50095 12.0049 2.50001Z" fill="#FF6B00"/>
</svg>
